<svg height="512pt" preserveAspectRatio="xMidYMid meet" viewBox="0 0 512 512" width="512pt" xmlns="http://www.w3.org/2000/svg"><path d="m2378 5115c-2-1-39-5-82-9-44-4-82-9-85-11-4-2-34-7-66-10-117-14-472-111-499-136-6-5-16-9-23-9-8 0-49-16-91-35-352-161-618-354-877-637-33-36-71-80-85-98s-29-38-35-44c-82-92-246-369-323-546-61-142-131-351-146-443-3-15-7-35-10-45-3-9-7-34-11-56-3-21-7-41-9-45-4-6-12-72-26-201-8-85-5-454 5-515 30-190 39-241 57-315 25-105 97-327 131-400 63-138 119-249 148-295 59-93 160-242 177-261 9-11 33-40 52-64 99-129 283-304 447-429 222-168 482-302 756-390 142-45 310-82 437-97 30-3 76-10 103-14 48-7 471-5 517 4 14 2 45 7 70 10 25 4 92 16 150 27 58 12 115 23 128 25 38 7 320 103 370 125 91 41 245 121 321 166 592 356 1023 950 1175 1619 50 224 61 334 61 614-1 205-9 288-46 475-81 402-278 807-548 1127-241 286-493 484-837 657-67 34-125 61-129 61s-21 6-38 14c-137 62-421 138-607 162-25 3-56 8-70 10-27 6-456 14-462 9z" transform="matrix(.1 0 0 -.1 0 512)"/></svg>