<svg xmlns="http://www.w3.org/2000/svg" xmlns:xlink="http://www.w3.org/1999/xlink" width="290" height="284"><defs><linearGradient id="a" x1="68.946%" x2="2.02%" y1="97.952%" y2="2.048%"><stop offset="0%" stop-color="#594CC3"/><stop offset="100%" stop-color="#2B8AEB"/></linearGradient><path id="b" d="M0 .014h258.939V152H0z"/><path id="d" d="M.667.939h259v152h-259z"/></defs><g fill="none" fill-rule="evenodd"><path fill="url(#a)" d="M0 0h290v284H0z"/><g opacity=".5" transform="translate(18.333 131.061)"><g transform="translate(.667 .939)"><mask id="c" fill="#fff"><use xlink:href="#b"/></mask><path fill="#FFF" d="M24.482 108.433a.455.455 0 0 0-.486-.431c-.27.012-.46.216-.43.474.03.258.19.39.444.404.25.012.477-.21.472-.447zm48.274-.43a.45.45 0 0 0-.442.468.46.46 0 0 0 .446.41.438.438 0 0 0 .465-.443c0-.26-.2-.444-.47-.436zM31.81 119.715a.58.58 0 0 0-.555-.59.573.573 0 0 0-.553.53.562.562 0 0 0 .554.586.573.573 0 0 0 .554-.526zm33.75.524a.544.544 0 0 0 .524-.548.555.555 0 0 0-.573-.564c-.28.017-.535.278-.538.553-.005.3.278.57.587.56zm3.964-1.898h6.644c-.218-.154-.313-.252-.428-.293-.109-.038-.24-.017-.36-.017-1.734-.001-3.469-.003-5.203 0-.248.001-.536-.06-.653.31zm-42.252.01c-.128-.365-.406-.32-.656-.32-1.472-.002-2.943-.001-4.415-.001-.323 0-.645.002-.968 0-.226 0-.418.041-.48.32h6.52zm-3.28-4.44c-.824.966-.78 2.25.075 2.872.666-.8.88-2.068-.074-2.872zm48.795 0c-.86.892-.845 2.09.009 2.878.859-1.034.785-2.114-.01-2.878zm-54.338 10.366c1.59.212 10.184.155 10.678.007-.07-.081-.118-.19-.186-.204-.155-.034-.32-.027-.482-.027h-9.28c-.142 0-.29-.02-.422.018-.113.032-.206.134-.308.206zm59.902.09c-.115-.414-.442-.311-.7-.311-3.115-.006-6.23-.004-9.344-.004-.141 0-.291-.02-.42.022-.08.024-.128.147-.242.292h10.706zm143.776-56.63v-.766c-.686-.143-4.76-.115-5.21.04 0 .148-.005.307.001.466.004.076.029.151.05.26h5.16zm15.305-.809h-5.198v.806c1.289.112 4.751.065 5.198-.07v-.736zM32.638 148.06h-1.667v2.748h1.667v-2.749zm-1.714-18.076c0 .523-.012.982.003 1.44.014.449-.069.907.064 1.344h1.683c0-.504.011-.962-.003-1.42-.014-.449.066-.907-.067-1.364h-1.68zm-.578-5.617h1.798v-2.706h-1.798v2.706zm7.01 26.433h1.69v-2.748h-1.69v2.748zm26.79.013c.577.044 1.128.077 1.69-.017v-2.737h-1.69v2.754zm-12.814-.007h1.69v-2.75h-1.69v2.75zm-7.581-.001h1.72v-2.739h-1.72v2.739zm20.406-20.822v2.797h1.64c.145-.67.117-2.376-.041-2.797h-1.6zm-12.823 2.811c.615.021 1.152.045 1.692-.01v-2.786c-.17-.016-.306-.038-.443-.04-.401-.005-.802-.002-1.249-.002v2.838zm-13.972-2.817v2.826c.596 0 1.147.05 1.727-.034-.005-.966.028-1.87-.02-2.792h-1.707zm20.365 20.78c.609.144 1.296.128 1.754-.046 0-.425.014-.864-.004-1.302-.017-.45.082-.91-.078-1.348h-1.672v2.697zm.001-17.986h1.704v-2.782h-1.704v2.782zm-12.26.006v-2.783c-.595-.046-1.147-.081-1.689.013-.113.797-.083 2.353.048 2.77h1.641zm21.009-8.393c.014-.946.035-1.835-.014-2.76h-1.819v2.76h1.833zm155.66-42.7c-.805-.122-6.437-.09-6.875.033v.734h6.874v-.768zm-6.875-8.154c.805.125 6.439.09 6.873-.035v-.734h-6.873v.77zm16.957.04h6.842v-.81h-6.842v.81zm-.012 8.885h6.868v-.774c-.765-.118-6.42-.086-6.868.038v.736zm-40.318 65.098c-.743.516-3.27 2.88-3.478 3.233.725.12 3.045.088 3.478-.052v-3.181zm-10.649-19.695h11.713v-.584h-11.722c-.012.137-.028.233-.027.33 0 .075.02.15.036.254zm-82.465-.008h11.773l-.05-.59c-.236-.011-.434-.028-.632-.028H99.43a4.89 4.89 0 0 0-.484.021c-.054.005-.104.052-.172.088v.509zm41.226 7.348h11.761l-.036-.62H140.66c-.162 0-.324.003-.484.017-.054.005-.104.05-.174.086v.517zm-27.494-14.251h11.726v-.61h-11.726v.61zm27.47-20.92c1.222.116 11.316.069 11.791-.058l-.043-.575H140.01l-.032.632zm-13.73 5.969l.042.64h11.714v-.64h-11.756zm27.49.643h11.7V106h-11.7v.637zm25.452 13.703c-1.21-.112-11.286-.065-11.764.06l.055.535h11.71v-.595zm63.11-24.47c-.758-.137-9.641-.102-10.07.03v.74h10.07v-.77zm-30.293.763c1.278.126 9.693.072 10.126-.059v-.69c-.656-.148-9.676-.123-10.126.025v.724zm20.238-25.167c.948.126 3.926.086 4.338-.047v-2.448c-1.46-.01-2.881-.014-4.338.003v2.492zm-10.13-2.44c-.828-.114-3.907-.082-4.391.046a31.794 31.794 0 0 0-.003 2.412h4.394v-2.458zm29.036 79.62v.06c.424-.02.847-.029 1.269-.066.789-.07 1.33-.526 1.513-1.252a1.623 1.623 0 0 0-.736-1.764 1.426 1.426 0 0 1-.609-.704 1.045 1.045 0 0 0-1.3-.587c-.529.17-.814.648-.732 1.223.104.726.04.82-.677.983-.607.14-.945.585-.884 1.168.058.55.454.907 1.068.935.362.017.725.003 1.088.003zM55.614 124.361v-.785c.001-.462-.015-.924.012-1.384a.591.591 0 0 1 .591-.57c.309-.006.564.214.61.553.024.177.012.36.013.54v1.63h.697v-.626c.001-.502-.013-1.004.01-1.504a.6.6 0 0 1 .57-.595c.321-.016.604.232.637.594.024.259.007.52.01.782l.019 1.359h.643c.013-.201.031-.377.033-.554.005-.501-.008-1.003.007-1.504.013-.436.247-.682.604-.676.357.006.577.251.6.687.013.22.004.44.005.662l.009 1.377h.648c.027-1.122.055-2.21-.013-3.31h-8.497v3.311h.848c0-.591-.005-1.148.003-1.705a2.39 2.39 0 0 1 .06-.593c.078-.282.29-.43.589-.428a.559.559 0 0 1 .57.517c.036.399.021.802.024 1.203.003.334 0 .667 0 1.019h.698zm-15.672-.004v-.765c0-.441-.015-.884.008-1.324.021-.411.3-.67.647-.647.336.022.548.255.567.653.014.3 0 .602.005.903.006.392.017.783.026 1.177h.67l.001-.855c.003-.44-.015-.883.02-1.322a.582.582 0 0 1 .605-.555c.317 0 .556.21.604.56.027.196.016.4.016.6.002.515 0 1.03 0 1.553h.879v-3.266c-.729-.137-8.08-.1-8.513.043v3.268l.66-.03c0-.688-.006-1.326.001-1.965.006-.498.203-.752.572-.766.381-.014.617.272.638.785.008.22 0 .441.003.662.006.38.012.76.027 1.141.002.052.053.102.097.182l.555-.06c0-.52-.002-1 .001-1.479.002-.24-.012-.484.026-.72a.592.592 0 0 1 .647-.507c.29.028.497.236.532.56.019.178.009.36.009.54v1.634h.697zm-14.458-7.478c.506 0 .911.023 1.31-.012.155-.013.356-.12.436-.246.732-1.152.641-1.913-.107-2.67a12.118 12.118 0 0 1-.331-.352c-.855-.937-1.71-1.872-2.558-2.814-.065-.073-.076-.193-.112-.29-.062.02-.124.042-.186.064-.04.07-.068.15-.121.21-.824.909-1.652 1.815-2.477 2.723-.23.253-.477.494-.683.766-.51.677-.388 1.928.226 2.496.043.04.097.092.15.096.492.037.985.07 1.485-.022-.035-.135-.043-.196-.066-.251-.65-1.58-.082-2.854 1.029-3.982.356-.362.695-.365 1.053-.005.269.27.507.572.728.883.64.9.772 1.875.388 2.915-.047.127-.086.257-.164.491zm48.801-.006c.495 0 .933.011 1.37-.008.102-.004.223-.091.296-.174.715-.81.723-1.874-.012-2.675-1.046-1.14-2.119-2.257-3.203-3.408-.086.098-.202.233-.321.365-.66.733-1.316 1.468-1.98 2.196-.272.297-.574.567-.838.87-.69.796-.69 1.82-.007 2.629.082.096.226.19.346.197.434.023.87.009 1.37.009-.095-.284-.158-.469-.218-.655-.238-.736-.26-1.478.123-2.162a8.535 8.535 0 0 1 1.007-1.417c.383-.44.737-.421 1.136-.007 1.084 1.124 1.63 2.386.99 3.94-.023.053-.024.115-.059.3zm-29.039 7.494h6.345v-.796c-.003-.62.012-1.241-.013-1.86-.028-.686-.3-.925-.991-.93-.161 0-.323.022-.484.015-.39-.016-.543-.147-.607-.528-.034-.197-.038-.399-.07-.596-.071-.425-.244-.802-.561-1.106-.38-.365-.557-.385-.91-.016a2.29 2.29 0 0 0-.46.693c-.104.253-.137.54-.167.816-.066.624-.2.75-.843.735-.121-.003-.243-.016-.363-.012-.603.023-.845.228-.886.834-.04.577-.032 1.158-.032 1.738 0 .335.027.67.042 1.013zm171.72-43.982h5.139v-5.56h-5.14v5.56zm20.436-5.593a780.842 780.842 0 0 0-5.123-.003c-.135.902-.093 5.163.04 5.587.864.102 4.626.067 5.083-.053v-5.53zm-159.558 48.04c0-.453.025-.852-.01-1.246a1.206 1.206 0 0 0-.226-.587c-.301-.402-.65-.768-.962-1.162-.152-.193-.325-.266-.57-.265-2.204.006-4.409 0-6.614.01-.147 0-.343.043-.433.141-.42.46-.814.945-1.21 1.426a.381.381 0 0 0-.081.22c-.007.475-.004.949-.004 1.462h10.11zm31.643 13.733l-.07-.127c-1.314 0-2.628-.011-3.942.013-.192.004-.414.143-.566.28-1.598 1.447-3.184 2.907-4.777 4.359-.205.187-.318.383-.314.675.016 1.063.005 2.126.01 3.19 0 .102.046.204.087.377l9.572-8.767zM29.036 122.83c.11-.865.185-1.666-.555-2.293-.212-.18-.384-.413-.546-.641-.184-.26-.416-.332-.726-.326-.848.018-1.697.006-2.546.006h-3.82c-.241 0-.474-.017-.656.212-.35.44-.725.86-1.085 1.293-.062.076-.14.17-.143.258-.014.491-.006.984-.006 1.49h10.083zm59.713 24.438c.769 0 1.538.02 2.306-.007a1.499 1.499 0 0 0 1.453-1.298c.1-.675-.315-1.343-1.001-1.61-.869-.338-.86-.336-.58-1.259.32-1.054.092-2-.697-2.765-.81-.786-1.803-.966-2.865-.599-1.152.399-1.845 1.55-1.75 2.556.044.457-.076.784-.457 1.091-.752.608-.973 1.585-.646 2.454.322.855 1.095 1.408 2.052 1.433.728.02 1.457.004 2.185.004zm87.193 3.509c.2.04.275.067.35.067 1.215.003 2.43-.004 3.643.008.298.003.489-.148.684-.328 3.656-3.348 7.31-6.696 10.972-10.037.247-.225.338-.462.332-.788-.017-.923-.004-1.846-.008-2.77 0-.151-.026-.303-.04-.459-.359-.073-.508.181-.69.347-4.477 4.092-8.951 8.188-13.425 12.283-.577.528-1.151 1.061-1.818 1.677zm61.456-56.197V83.773c-.623-.135-4.691-.118-5.15.017-.011.094-.034.193-.035.291v10.162c.001.078.026.156.042.234a.12.12 0 0 0 .028.051c.013.015.032.025.068.052h5.047zm-15.3 0c.14-1.315.077-10.44-.067-10.858-1.133-.11-4.635-.062-5.059.07-.132 1.285-.068 10.364.078 10.789h5.047zm1.345-32.538c-.14.847-.097 7.592.04 7.985h7.474v-7.985h-7.514zm-59.759 88.666l.055.117c.136.008.273.022.41.022 1.092.002 2.184-.013 3.276.009.378.008.65-.123.912-.373.612-.584 1.241-1.15 1.865-1.721 4.35-3.986 8.7-7.97 13.05-11.958.091-.084.163-.19.312-.365-1.36 0-2.61.01-3.859-.007-.329-.004-.564.1-.804.32-4.584 4.208-9.175 8.406-13.764 12.608-.487.446-.969.898-1.453 1.348zm-4.852-14.141l-.056-.128c-1.249 0-2.498.01-3.746-.008a1.075 1.075 0 0 0-.805.319c-1.032.96-2.074 1.908-3.113 2.86-3.95 3.618-7.899 7.236-11.846 10.856-.092.084-.163.19-.297.35.27.014.446.03.622.03 1.031.003 2.063-.01 3.094.008.39.007.678-.103.972-.372 4.298-3.952 8.61-7.89 12.917-11.833.755-.691 1.505-1.388 2.258-2.082zm12.41-.1c-.27-.012-.444-.027-.617-.027-.992-.003-1.984.026-2.974-.012-.525-.02-.903.147-1.284.497-4.849 4.458-9.71 8.902-14.568 13.351-.157.144-.307.295-.555.535.333.017.527.035.722.036.95.003 1.903-.03 2.852.013.55.024.942-.153 1.341-.52 4.862-4.474 9.74-8.931 14.611-13.394.142-.13.27-.274.471-.479zm-69.333 14.185l.102.152c.153.015.307.042.46.042 1.093.004 2.187-.01 3.28.009.351.005.604-.11.858-.345 1.746-1.615 3.505-3.216 5.26-4.822l9.63-8.82c.12-.11.22-.24.391-.43-1.355 0-2.59.017-3.823-.009-.38-.008-.643.12-.91.365-4.915 4.512-9.836 9.017-14.758 13.52-.145.133-.326.226-.49.338zm12.312.158c.323.018.515.036.708.037 1.011.003 2.024-.02 3.034.011.444.014.76-.133 1.075-.425 1.802-1.67 3.618-3.325 5.43-4.984 3.06-2.802 6.124-5.602 9.18-8.409.176-.162.426-.285.499-.601-1.16 0-2.272.032-3.381-.013-.611-.025-1.049.156-1.5.571-4.44 4.097-8.905 8.169-13.361 12.25-.532.486-1.056.98-1.684 1.563zm12.406-.014c.147.026.221.05.295.05 1.214.002 2.428-.006 3.643.007.295.003.49-.136.687-.317 4.991-4.573 9.984-9.144 14.974-13.717.097-.088.179-.192.313-.339-.15-.02-.224-.04-.297-.04-1.214-.002-2.429.008-3.643-.008-.294-.004-.491.12-.69.303-4.976 4.56-9.954 9.118-14.93 13.677-.11.102-.204.222-.352.384zm-65.91-36.673H36.091c-.071.494-.103.535.16.731.552.413.692.95.615 1.589a1.842 1.842 0 0 0 0 .42c.048.433-.09.777-.43 1.063-.163.137-.36.325-.386.512-.06.404-.018.822-.018 1.304h.798c2.55 0 5.099.009 7.648-.006.54-.003 1.08-.09 1.62-.14.077-.247.134-.437.196-.625.201-.606.54-1.12 1.056-1.509.682-.513 1.379-.518 2.067-.017.541.394.881.93 1.088 1.556l.193.576c.443.057.862.156 1.281.158 2.731.014 5.463.008 8.194.005.192 0 .385-.035.623-.058 0-.357-.012-.656.003-.953.014-.26-.048-.479-.265-.633-.515-.367-.677-.867-.59-1.472a1.302 1.302 0 0 0-.001-.36c-.079-.563.084-1.017.556-1.365.238-.175.392-.41.216-.776zm131.196 11.87c0-.32.01-.597-.002-.874-.033-.8-.07-1.6-.114-2.4-.126-2.286-.412-4.55-.992-6.769-.315-1.205-.732-2.372-1.37-3.456-.216-.366-.467-.535-.916-.517a32.47 32.47 0 0 1-2.79-.001c-.496-.023-.773.155-1.012.567-.683 1.177-1.112 2.446-1.43 3.754-.702 2.897-.96 5.847-.997 8.82-.003.291 0 .583 0 .875h9.623zm-82.505.012c.02-.149.04-.227.04-.306-.003-3.218-.263-6.41-1.035-9.545-.317-1.288-.752-2.538-1.445-3.687-.205-.34-.44-.511-.87-.49-.828.04-1.66.011-2.49.011-1.042 0-1.048-.003-1.53.902-.695 1.307-1.094 2.714-1.409 4.147-.518 2.36-.706 4.757-.82 7.162-.028.59-.004 1.184-.004 1.806h9.563zm-82.471 2.707c.744.148 42.418.122 42.872-.016-.066-.085-.12-.168-.187-.237-.755-.783-1.536-1.543-2.259-2.354-.354-.398-.724-.539-1.253-.538-11.82.013-23.64.01-35.46.01-.122 0-.244.008-.365-.001-.24-.019-.417.07-.582.25-.422.46-.865.9-1.297 1.35l-1.47 1.536zM130.33 84.256c-1.987 6.72-2.921 13.539-3.01 20.48 1.094.138 9.215.081 9.625-.057.413-3.958-1.754-18.297-3.093-20.423h-3.522zm27.45-.003c-1.48 4.854-2.32 9.783-2.757 14.785a66.078 66.078 0 0 0-.263 5.72h9.561c.62-2.973-1.616-18.128-3.025-20.505h-3.516zm-41.132 14.288c-1.563 3.676-3.66 18.223-2.977 20.539.918.11 9.066.066 9.553-.068-.098-6.949-1.024-13.784-3.025-20.471h-3.551zm54.882.004c-1.989 6.7-2.932 13.536-3.018 20.49.72.148 9.19.116 9.612-.02.437-3.89-1.73-18.27-3.089-20.47h-3.505zm-30.5 34.83h9.673c-.113-7.003-1.025-13.842-3.025-20.538h-3.623c-1.995 6.7-2.917 13.536-3.024 20.539zm0-35.269c.587.158 9.183.145 9.672-.012-.116-6.934-1.023-13.757-3.028-20.453h-3.032c-.18.001-.36.016-.592.026-1.992 6.683-2.907 13.505-3.02 20.439zm99.976 52.676c.137-.93.093-52.433-.033-52.854-.82-.123-8.283-.079-8.707.052-.133.861-.082 52.348.062 52.802h8.678zm-18.904 0V97.914h-8.738c-.136.773-.101 52.422.032 52.866h8.706zm1.299-79.532v79.504c.548.133 7.016.129 7.518-.002.015-.05.046-.107.046-.163.005-26.289.007-52.577.008-78.866 0-.119-.022-.238-.037-.356a.112.112 0 0 0-.028-.053c-.012-.015-.03-.024-.081-.064h-7.426zM42.526 150.777v-.733c0-.803-.007-1.606.002-2.408.008-.616.175-.782.803-.79.85-.011 1.7-.011 2.55 0 .65.008.815.18.822.84.009.802 0 1.605.004 2.408.001.214.023.428.037.676h3.332c.011-.24.028-.436.03-.632.002-.844-.006-1.687.003-2.53.007-.583.171-.752.764-.761a84.17 84.17 0 0 1 2.611 0c.613.009.778.187.783.809.006.843 0 1.686.003 2.529 0 .193.02.386.033.613.76.012 1.456.064 2.193-.035v-.732c0-.782-.007-1.565.003-2.348.007-.658.171-.828.824-.837.83-.012 1.66-.01 2.49-.001.699.006.853.161.86.856.008.803 0 1.606.004 2.409.002.213.026.426.042.675.753.036 1.446.077 2.155-.023.012-.24.027-.418.027-.596.003-.823-.003-1.646.003-2.469.005-.677.176-.846.87-.853.809-.008 1.619-.007 2.429 0 .718.006.857.144.86.842.006.844 0 1.687.004 2.53 0 .175.023.35.037.55.2.02.358.048.515.049 3.665.002 7.33.002 10.994-.001.17 0 .342-.042.508-.064v-25.118H68.657c.12.165.189.28.278.376.276.294.561.579.84.869.644.667 1.29 1.332 1.927 2.004.27.286.319.56.171.815-.155.269-.416.283-.687.283a719.571 719.571 0 0 0-3.401 0c-.216 0-.432.02-.688.032-.012.249-.03.444-.03.64-.004.863.004 1.726-.005 2.59-.006.537-.189.744-.718.756-.89.02-1.781.018-2.672 0-.556-.011-.76-.23-.767-.784-.01-.863 0-1.726-.004-2.59 0-.193-.021-.387-.033-.593h-2.193v.705c0 .783.004 1.565-.001 2.348-.005.737-.184.914-.94.92-.79.006-1.58.01-2.369-.002-.671-.011-.862-.207-.868-.874-.007-.822.002-1.645-.004-2.468-.001-.211-.031-.422-.049-.643h-2.147c-.01.232-.027.427-.027.623-.003.843.003 1.686-.003 2.529-.005.608-.187.817-.778.83a63.13 63.13 0 0 1-2.611 0c-.577-.013-.762-.209-.768-.773-.01-.863-.001-1.727-.005-2.59 0-.194-.022-.388-.036-.614h-3.364v.69c0 .824.01 1.647-.004 2.47-.01.602-.203.805-.8.817-.85.018-1.7.016-2.55.002-.63-.01-.817-.21-.823-.849-.007-.823.001-1.646-.004-2.469 0-.213-.024-.426-.038-.653h-2.187v.648c0 .823.005 1.646-.002 2.469-.006.63-.201.842-.826.853-.85.015-1.7.016-2.55 0-.604-.011-.779-.204-.783-.816-.007-.863 0-1.726-.004-2.59-.001-.19-.029-.38-.044-.565h-2.21v.706c-.001.843.006 1.686-.004 2.53-.006.465-.193.711-.628.723-.97.027-1.943.027-2.914-.002-.416-.013-.603-.249-.612-.675-.013-.682-.004-1.365-.004-2.047v-1.238c-.23-.018-.405-.044-.581-.045-.912-.004-1.823-.002-2.734-.002-.324 0-.649.016-.971-.008-.534-.04-.757-.51-.46-.948.068-.098.159-.182.242-.269.838-.871 1.677-1.741 2.513-2.614.132-.138.252-.288.4-.457-.756-.14-10.024-.109-10.467.025v25.01c.647.16 11.56.133 12.058-.04v-.573c0-.823-.006-1.646.002-2.469.006-.617.17-.782.798-.79.85-.01 1.7-.01 2.551 0 .651.01.805.174.809.843.005.842 0 1.686.003 2.529.001.174.024.35.04.558h2.215v-.625c0-.843-.006-1.686.002-2.529.005-.604.153-.764.744-.774a89.46 89.46 0 0 1 2.611 0c.615.007.796.19.803.795.01.843.001 1.686.004 2.53.001.193.018.387.03.645.541 0 1.023.003 1.505-.002.197-.002.395-.021.691-.038zm34.407-33.344c.309.32.587.609.867.896.463.475.48.567.175 1.2.256.305.52.632.799.946.198.223.29.465.28.766-.016.521.01 1.044-.009 1.565-.01.3.043.564.28.757.911.741 1.072 1.696 1.065 2.83-.045 7.869-.024 15.738-.024 23.607v.809h7.421v-2.369c-.405-.004-.801 0-1.197-.015-1.395-.05-2.451-.661-3.053-1.923-.623-1.306-.436-2.548.495-3.648.25-.296.365-.579.402-.956.188-1.92 1.694-3.354 3.639-3.505 1.838-.142 3.566 1.092 4.028 2.9.083.326.11.673.119 1.011.007.319-.046.639-.075.99.117.085.244.178.373.269.96.676 1.377 1.803 1.08 2.916-.289 1.078-1.259 1.86-2.442 1.937-.484.031-.971.007-1.457.013-.198.002-.395.017-.628.028v2.347h9.506v-21.656c-.034-.022-.05-.04-.066-.042-.91-.132-.963-.192-.965-1.097-.001-.362-.005-.723 0-1.084.01-.657.138-.796.793-.892.078-.011.154-.03.269-.054.025-.648.053-1.283.076-1.92.085-2.389.302-4.763.792-7.108.328-1.576.755-3.123 1.529-4.55.238-.438.541-.843.832-1.252.174-.244.426-.34.737-.338 1.377.01 2.754.012 4.13-.002.341-.003.608.117.78.378.375.569.774 1.133 1.064 1.744.773 1.627 1.18 3.368 1.477 5.133.407 2.419.597 4.856.612 7.308 0 .14.01.28.025.42.006.057.034.11.049.153.05.028.082.058.119.065.88.158.898.179.9 1.09 0 .382.004.763-.002 1.145-.01.634-.137.768-.765.828-.08.008-.158.025-.27.043v6.09h1.628V122.24c-.999-.207-1.003-.213-1.004-1.23 0-.342-.004-.683.002-1.025.011-.678.123-.796.797-.864.058-.006.116-.022.24-.047.03-.685.066-1.38.09-2.076.219-6.303 1.153-12.496 2.942-18.554.317-1.074.325-1.072 1.459-1.072 1.174 0 2.349-.004 3.523.002.633.003.72.064.908.665.87 2.76 1.503 5.578 1.989 8.428.69 4.041 1.1 8.11 1.118 12.212 0 .118.014.237.023.387.151.022.284.044.417.061.478.06.633.214.648.699.014.501.009 1.003.002 1.505-.009.629-.1.732-.707.837-.079.013-.158.023-.233.034-.139.425-.179 12.23-.042 13.006h1.547c.127-.467.143-26.717.018-27.299-.976-.2-.976-.2-.976-1.209 0-.381-.007-.763.002-1.144.012-.557.136-.685.71-.763a3.12 3.12 0 0 0 .235-.041c.018-.004.034-.021.1-.065.025-.865.036-1.766.079-2.665.238-5.022.906-9.986 2.11-14.873.283-1.148.616-2.285.95-3.42.183-.62.293-.684.957-.688 1.276-.006 2.551-.005 3.827 0 .703.002.786.065.994.723.833 2.646 1.44 5.345 1.924 8.072a78.86 78.86 0 0 1 1.11 9.982c.046.96.058 1.922.085 2.86.06.046.089.088.123.092.894.115.916.139.916 1.052 0 .422.006.843-.001 1.265-.01.582-.105.68-.702.752l-.222.026c-.03.026-.047.038-.06.053-.013.015-.029.031-.032.049-.014.078-.035.157-.035.236 0 8.913 0 17.826.002 26.738 0 .078.024.156.043.265h.612c0-.339-.003-.674 0-1.009.008-.636.097-.73.721-.782.08-.007.158-.02.231-.028.128-.447.16-31.374.039-32.073-.99-.187-.99-.187-.99-1.246 0-.341-.003-.683 0-1.024.005-.674.077-.752.742-.832.078-.01.154-.031.283-.057.022-.52.052-1.035.066-1.55.177-6.448 1.11-12.78 2.929-18.978.404-1.377.377-1.17 1.619-1.179 1.093-.007 2.187-.003 3.28 0 .766.001.823.046 1.058.793.826 2.627 1.425 5.308 1.904 8.015a79.3 79.3 0 0 1 1.119 10.163c.042.898.051 1.798.074 2.66.08.059.11.099.144.103.885.126.902.145.904 1.007 0 .422.005.844-.001 1.265-.008.605-.124.727-.733.796l-.278.035v32.064c1.01.176 1.01.176 1.012 1.186v.648l.575.07v-27.347c-1.171-.17-.986-.429-1.006-1.222a21.462 21.462 0 0 1 0-1.024c.016-.67.129-.788.804-.87.078-.01.154-.033.263-.056.028-.91.042-1.81.084-2.709.283-6.074 1.187-12.05 2.922-17.89.326-1.098.337-1.096 1.51-1.096 1.093 0 2.186-.002 3.28 0 .853.003.903.042 1.153.837.826 2.628 1.42 5.31 1.9 8.018a79.112 79.112 0 0 1 1.12 10.343c.035.82.042 1.64.06 2.42.082.065.11.107.143.112.88.117.918.159.92 1.061 0 .402.004.804-.001 1.205-.01.616-.109.722-.727.805-.078.01-.156.023-.226.034-.13.47-.151 26.718-.022 27.341h1.596v-12.977l-.402-.078c-.488-.094-.6-.22-.611-.733a43.564 43.564 0 0 1-.002-1.446c.006-.673.118-.79.796-.86.059-.005.116-.025.227-.051.023-.265.064-.538.067-.812.037-3.638.392-7.248.959-10.84.476-3.016 1.117-5.994 1.997-8.92.37-1.226.307-1.125 1.538-1.126 1.134 0 2.268-.002 3.402.001.704.003.777.058.987.722.83 2.627 1.43 5.309 1.912 8.016a78.042 78.042 0 0 1 1.11 9.86c.05 1.02.064 2.043.095 3.088.112.024.204.054.299.064.633.062.753.185.767.832.01.441-.007.883.004 1.325.016.637-.219.89-.789.896-.058 0-.116.027-.217.052v12.963h1.624v-6.039c-.053-.028-.086-.059-.122-.063-.879-.109-.907-.138-.909-.995 0-.401-.003-.803 0-1.204.007-.655.096-.753.746-.853.079-.012.156-.03.3-.056.016-.411.035-.824.046-1.236.085-3.035.328-6.052 1.109-8.999.25-.946.616-1.865.959-2.785.132-.355.33-.689.527-1.015.668-1.103.727-1.13 2.025-1.13 1.113 0 2.227.013 3.34-.007.407-.008.693.14.936.445.583.734.984 1.564 1.319 2.428.672 1.733 1.045 3.54 1.31 5.37.312 2.167.423 4.35.474 6.537.003.12.02.238.029.346.049.032.08.068.116.074.864.135.942.221.947 1.066.003.381.009.763-.001 1.144-.018.652-.168.803-.818.857-.06.005-.12.017-.178.025-.117.429-.162 20.741-.049 21.647.433.126 7.708.155 8.443.026v-15.406c-.218-.012-.414-.031-.61-.031-1.175-.004-2.35.002-3.524-.004-.758-.004-.997-.276-.876-1.002.206-1.233.887-2.106 2.082-2.516 1.22-.42 2.311-.136 3.244.745.087.082.156.183.279.329.188-.18.335-.336.498-.471.968-.801 2.056-1.024 3.23-.55 1.17.471 1.822 1.362 1.939 2.616.057.623-.144.842-.79.847-1.174.01-2.349.004-3.523.004h-.685v15.398c.449.151 8.613.17 9.19.02V97.865c-.233-.011-.434-.01-.633-.032-.387-.042-.57-.187-.584-.564a24.695 24.695 0 0 1-.002-2.046c.02-.448.212-.583.743-.587 1.134-.008 2.268-.003 3.402-.003h.643c.138-.488.162-10.274.027-10.971-.283 0-.582.01-.88-.003-.5-.022-.71-.207-.727-.694a26.375 26.375 0 0 1 .002-1.866c.017-.467.217-.64.685-.657.302-.011.605-.002.897-.002.131-.456.163-4.845.038-5.67-.302 0-.62.011-.937-.002-.443-.02-.659-.19-.677-.606a24.53 24.53 0 0 1-.002-1.987c.016-.423.225-.605.664-.619.562-.017 1.126-.004 1.772-.004V69.03c-.145-.059-.272-.106-.396-.162-.22-.101-.35-.269-.35-.516-.002-.683-.017-1.366.005-2.048.013-.436.204-.574.741-.576 1.64-.005 3.28-.002 4.92-.002h.73c.014-.228.037-.42.038-.61.003-1.104-.005-2.208.006-3.312.003-.235.016-.496.117-.7.453-.92.65-1.908.712-2.907.093-1.48.094-2.965.133-4.449.003-.12-.017-.241-.005-.36.034-.321.243-.527.546-.538.303-.01.5.142.585.425.035.114.056.235.06.354.062 2.029.041 4.053-.341 6.057-.067.352-.157.7-.247 1.1h.986c.007-.223.02-.456.02-.69 0-4.697 0-9.394.002-14.091 0-.22-.006-.445.035-.66.066-.34.273-.489.596-.48.315.01.517.185.56.52.024.197.012.4.012.6v14.793l.618.044V37.72c0-.2-.015-.404.014-.6.05-.347.3-.546.625-.531.328.014.53.219.56.586.015.18.006.361.006.542v23.05l.53.063c.036-.098.071-.152.074-.207.01-.22.012-.442.012-.662 0-4.678 0-9.355.002-14.032 0-.2-.007-.405.033-.599.069-.325.297-.481.611-.465.311.017.508.197.547.534.022.199.013.401.013.602v14.786h.972c-.14-.89-.302-1.756-.406-2.628-.185-1.538-.18-3.083-.106-4.627.022-.447.244-.687.6-.682.38.005.61.287.58.752-.124 1.93-.05 3.85.288 5.755.094.527.312 1.033.456 1.553.085.304.188.616.195.927.024 1.063.007 2.127.01 3.191 0 .216.02.431.034.698h.71c1.62 0 3.239-.002 4.859.002.696.001.82.122.833.797.008.461.003.923.002 1.385-.001.804-.002.804-.765 1.135 0 .68-.002 1.38.001 2.08 0 .117.021.233.04.425h1.34c.182.001.366-.01.545.014.292.04.491.203.495.514.008.722.017 1.445-.004 2.167-.01.334-.194.494-.552.517-.34.022-.682.005-1.061.005v5.672c.339 0 .64-.007.941.002.501.015.668.163.679.64.014.642.014 1.284 0 1.926-.008.442-.18.619-.622.649-.32.022-.641.004-.95.004-.13.637-.114 10.465.018 10.973h1.62c.83 0 1.66-.009 2.49.004.504.008.69.195.704.698.015.582.012 1.165 0 1.746-.01.58-.164.721-.771.76-.138.009-.276.021-.403.031-.12.475-.157 52.106-.046 52.872.43.13 7.298.183 8.527.06v-.949c-.292-.013-.57-.022-.847-.038-1.085-.063-1.884-.711-2.135-1.732-.234-.952.204-1.93 1.106-2.46.104-.06.214-.111.351-.183.021-.142.04-.297.067-.45.157-.902.87-1.65 1.726-1.814 1.007-.192 1.888.18 2.425.99.16.244.362.474.586.662a2.867 2.867 0 0 1 .912 3c-.319 1.075-1.288 1.861-2.436 1.977-.157.016-.313.04-.498.065v.976h.686l5.163.001c.181 0 .367-.003.543.032a.568.568 0 0 1 .45.565.557.557 0 0 1-.48.537c-.1.017-.202.012-.303.013H1.343c-.263 0-.527.012-.789-.007-.34-.025-.535-.223-.553-.525-.02-.322.183-.555.544-.6.18-.023.363-.015.545-.015h6.886v-8.247H7.3c-1.174 0-2.348.003-3.523-.002-.676-.003-.873-.216-.799-.879.138-1.225.783-2.112 1.935-2.556 1.187-.457 2.306-.257 3.283.583.076.066.142.143.214.214.056.055.114.107.294.275.073-.133.114-.28.21-.373.945-.918 2.08-1.16 3.303-.735 1.215.421 1.875 1.349 2.044 2.61.081.602-.146.857-.769.86-1.174.007-2.348.003-3.523.003h-.646c-.151.46-.207 6.966-.084 8.132.421.14 6.412.176 7.2.025v-.743c0-8.15.005-16.3-.01-24.45 0-.58.099-1.068.554-1.45.615-.519.88-1.162.752-1.966-.146-.914.103-1.698.824-2.315.09-.077.154-.184.256-.31-.404-.545-.135-.945.3-1.325.257-.223.476-.49.735-.76-.122-.242-.242-.469-.352-.7-.614-1.292-.519-2.49.498-3.556.584-.612 1.193-1.201 1.766-1.823.435-.471.831-.977 1.263-1.49-.456-.51-.8-1.025-.67-1.702.083-.427.279-.792.64-1.059.692-.511 1.685-.424 2.263.201.65.704.579 1.612-.244 2.53.435.602.92 1.181 1.446 1.73.585.611 1.188 1.206 1.755 1.834.726.805.857 1.752.54 2.759-.133.417-.347.809-.555 1.284.258.275.545.605.858.908.303.293.48.586.237 1.007-.046.08.021.223.095.343.176-.65.409-1.23 1.038-1.554.417-.214.859-.235 1.302-.13.966.227 1.407 1.11 1.181 2.393.47.182.497.589.488 1.032-.017.763-.005 1.526-.005 2.289v.627h.792c.01-.214.025-.41.026-.606.002-.984.019-1.968-.007-2.95-.013-.501.048-.924.615-1.1 0-.49.018-.951-.005-1.41-.02-.374.085-.67.396-.887.361-.252.51-.58.472-1.03-.024-.282-.08-.512-.308-.678-.474-.343-.626-.802-.56-1.368.033-.277-.006-.562.011-.842.024-.384.173-.53.562-.573.16-.017.324-.01.485-.01H60.96c.081 0 .162-.003.243 0 .637.022.763.152.776.804.003.2-.02.404.004.602.066.561-.107.996-.546 1.38-.495.434-.458 1.188.058 1.62.357.299.537.63.489 1.094-.025.238 0 .481-.006.722-.008.324-.018.617.363.796.266.125.244.439.244.701.002 1.024.002 2.048.002 3.072v.675h.767c.013-.187.034-.361.035-.536.003-.823.014-1.647-.004-2.47-.01-.412.063-.76.508-.954-.178-.658-.162-1.284.287-1.827.265-.32.6-.53 1.023-.596 1.103-.175 1.837.4 2.145 1.716.18-.074.27-.169.154-.354-.241-.381-.101-.675.19-.958.316-.307.613-.634.927-.96-.138-.27-.275-.514-.391-.767-.563-1.23-.487-2.38.463-3.404.521-.561 1.076-1.091 1.594-1.654.515-.561 1.004-1.146 1.54-1.762-.54-.452-.777-.985-.707-1.628.046-.417.234-.764.554-1.039.646-.557 1.66-.537 2.273.045.706.67.665 1.595-.14 2.609.09.134.173.294.29.423.689.762 1.385 1.517 2.08 2.272.19.208.394.404.583.613 1.059 1.17 1.209 2.307.491 3.708-.09.175-.188.346-.315.58z" mask="url(#c)"/></g><path fill="#FFF" d="M48.16 93.471h3.007v-.593c-.858 0-1.69-.002-2.52.002-.155 0-.31.023-.488.038v.553zm3.23-3.641c.526-.51.844-1.015 1.012-1.599.102-.355.236-.81-.11-1.07-.348-.26-.756-.11-1.136.156l.233 2.513zm-3.446.03c.073-.78.131-1.405.191-2.03.057-.591-.133-.794-.733-.776-.411.012-.54.128-.549.544-.018.9.458 1.551 1.09 2.261zm2.25 1.802c-.022-1.746.127-3.432-.542-5.036-.592 1.639-.557 3.324-.496 5.036h1.037zm-3.235 4.296h5.416v-1.236h-5.416v1.236zm2.64 7.694c-.456.46-.895.872-1.294 1.32a1.358 1.358 0 0 0-.364 1.002c.023.47-.108.598-.563.706-.058.014-.121.008-.178.024-.408.115-.57.4-.514.896.058.51.188.646.667.65.799.007 1.597.003 2.396.003.759 0 1.518.01 2.276-.009.16-.004.378-.061.464-.176.418-.557.157-1.223-.516-1.383-.488-.116-.545-.227-.6-.753-.032-.29-.117-.603-.27-.845-.36-.568-.859-1.008-1.505-1.435zm-9.59 6.928h19.356c0-.285.006-.526-.003-.767-.003-.097-.038-.193-.062-.31H40.009v1.077zm5.517-2.345c.024-.064.036-.082.038-.102.003-.039.008-.08 0-.118-.19-1.03.078-1.848 1.03-2.368a.587.587 0 0 0 .236-.315c.422-1.304 1.412-2.086 2.463-2.813a.607.607 0 0 1 .73-.004c.267.18.534.36.781.565.752.621 1.43 1.3 1.705 2.298.036.13.192.25.32.323.75.429 1.032 1.095.984 1.94l-.036.623c1.914 0 3.769.004 5.623-.009a.57.57 0 0 0 .398-.204c.549-.737.837-1.563.747-2.504-.124-1.297-.753-2.346-1.587-3.282-1.719-1.927-3.756-3.465-5.86-4.914-.181-.125-.448-.163-.675-.166a251.684 251.684 0 0 0-3.955-.006c-.678.003-1.405-.13-2.02.078-.636.214-1.175.75-1.737 1.172-1.56 1.174-3.082 2.394-4.377 3.879-.644.738-1.164 1.55-1.42 2.517-.28 1.06-.134 2.049.437 2.985.2.33.422.472.818.466 1.617-.025 3.236-.01 4.853-.012.175 0 .35-.02.504-.029zm14.812 3.634h-.81c-.022.19-.036.384-.07.576-.055.318-.228.476-.517.492-.308.017-.539-.157-.598-.477-.033-.176-.03-.359-.045-.578h-.855c-.103.415.071 1.045-.623 1.048-.714.003-.488-.654-.636-1.065h-.817c-.021.2-.028.396-.066.586-.065.326-.286.497-.593.487-.308-.011-.5-.19-.549-.533-.023-.158-.022-.32-.034-.522h-.837c-.106.426.04 1.053-.65 1.045-.682-.007-.53-.633-.627-1.06h-.825c-.091.435.062 1.03-.62 1.066-.394.02-.518-.19-.655-1.06h-.497c-.145.884-.264 1.073-.655 1.063-.406-.01-.54-.23-.619-1.052h-.793c-.132.843-.265 1.053-.663 1.052-.406 0-.54-.216-.62-1.046h-.845l-.05.443c-.045.403-.21.588-.537.603-.352.017-.546-.176-.603-.604-.018-.138-.024-.278-.038-.452-.156-.015-.288-.034-.422-.038-.118-.004-.237.01-.4.017-.021.158-.04.311-.064.464-.064.423-.262.622-.608.613-.335-.008-.521-.218-.572-.65-.014-.12-.017-.241-.028-.404h-.83c-.121.413.054 1.03-.644 1.052-.394.012-.515-.206-.6-1.048h-.846c-.135.892-.241 1.06-.652 1.05-.407-.01-.538-.226-.613-1.051h-.82c-.017.185-.017.367-.054.541-.075.353-.32.537-.641.509-.297-.027-.486-.219-.516-.567-.022-.263-.012-.529-.01-.793.005-.777.16-.942.903-.949.52-.005 1.039-.001 1.558-.001h.655c-.01-.76.123-1.435-.342-2.124-1.176-1.74-1.047-3.564-.105-5.37.55-1.055 1.347-1.917 2.19-2.73a35.794 35.794 0 0 1 4.742-3.819c.364-.247.51-.51.475-.945-.035-.445-.014-.895-.006-1.343.011-.62.14-.755.729-.796.134-.01.268-.028.468-.048 0-.325-.005-.626.001-.926.014-.632.14-.768.765-.844.057-.007.112-.024.261-.057-.193-.21-.347-.383-.509-.549-.535-.552-1.03-1.136-1.378-1.834-.295-.591-.439-1.208-.382-1.882.095-1.144 1.019-1.559 1.897-1.477.294.027.584.11.925.178.113-.184.228-.391.363-.584.505-.72 1.077-.717 1.577.01.124.18.227.376.343.57.33-.06.639-.141.952-.172 1.144-.113 1.887.565 1.904 1.733.01.67-.165 1.302-.534 1.847-.372.55-.804 1.06-1.22 1.577-.149.185-.327.345-.489.513.055.062.075.108.1.111.77.085.873.197.885.987.004.26 0 .521 0 .8.207.02.342.037.478.047.549.04.698.185.716.753.015.488.029.979-.002 1.466-.026.394.118.623.44.844 1.677 1.146 3.277 2.398 4.743 3.817 1.092 1.057 2.1 2.181 2.618 3.667.535 1.535.443 3.019-.453 4.379-.335.508-.475 1.006-.425 1.59.015.179.018.358.03.61h1.928c1.114.001 1.198.085 1.194 1.21 0 .202.007.41-.027.608-.058.336-.27.502-.58.495-.306-.008-.48-.18-.543-.47-.038-.177-.044-.36-.07-.583h-.834c-.088.425.07 1.022-.62 1.05-.396.015-.51-.181-.654-1.066zM29.858 64.8v-.001c1.381 0 2.763.032 4.143-.009 1.788-.053 2.957-1.78 2.327-3.378-.51-1.294-2.037-1.941-3.414-1.447-1.072.384-1.125.356-1.28-.694-.167-1.119-1.028-1.979-2.18-2.176-1.11-.19-2.245.32-2.762 1.316-.23.445-.523.594-1.023.622-1.933.108-3.224 1.942-2.654 3.72.388 1.21 1.483 2.022 2.82 2.043 1.34.021 2.682.005 4.023.005m-6.886-.025c-.59.03-1.061.062-1.533.077-.34.011-.68.01-1.02-.001-.508-.017-.749-.203-.752-.561-.003-.371.22-.541.742-.547.538-.007 1.077-.002 1.713-.002-.275-.771-.494-1.503-.392-2.275.1-.756.423-1.427.9-2.127-.273-.013-.464-.029-.655-.03-.54-.004-1.08.008-1.62-.006-.468-.013-.684-.202-.688-.556-.005-.355.212-.545.68-.549 1.16-.009 2.323.03 3.481-.018.57-.023 1.14-.173 1.697-.31.142-.034.256-.223.357-.36a3.908 3.908 0 0 1 5.316-.905c.62.418 1.083.965 1.354 1.653l.203.521c.157-.017.31-.027.46-.052 2.183-.355 4.213 1.125 4.433 3.234.216 2.06-1.484 3.929-3.67 3.957-2.722.036-5.444.016-8.166.005-1.064-.004-1.94-.387-2.84-1.148m102.26-19.032c1.276 0 2.553.003 3.83-.003.245 0 .497-.006.736-.056.994-.207 1.676-1.033 1.69-2.02.013-.993-.63-1.888-1.637-2.041-.711-.108-1.02-.424-1.048-1.103-.001-.02-.008-.04-.013-.06-.363-1.398-1.606-2.338-3.064-2.32a3.086 3.086 0 0 0-2.98 2.344c-.05.2-.075.407-.112.61-.09.502-.32.661-.823.567-.101-.02-.199-.056-.3-.077-1.486-.308-2.8 1.102-2.405 2.58.258.967 1.033 1.562 2.11 1.574 1.338.016 2.677.004 4.016.005m-3.76-5.334c.75-2.297 2.21-3.533 4.559-3.468 1.902.053 3.243 1.244 4.006 3.43.157.052.333.106.505.17 1.432.53 2.278 1.936 2.101 3.49a3.216 3.216 0 0 1-2.81 2.86 4.7 4.7 0 0 1-.615.045c-2.635.003-5.27.002-7.904.003-.647 0-1.267-.113-1.836-.446a3.3 3.3 0 0 1-1.322-4.259c.077-.165.165-.326.293-.577-.296-.013-.528-.024-.76-.032-.185-.007-.374.011-.554-.022-.27-.05-.431-.228-.463-.509-.034-.29.106-.544.388-.63.173-.051.365-.05.548-.053.638-.005 1.276-.002 1.914-.002h1.95m60.319 13.82l-2.778 2.131c-.157.12-.312.242-.473.356-.408.291-.628.3-1.025-.001-.929-.703-1.848-1.415-2.772-2.124-.25-.192-.505-.38-.748-.58-.375-.308-.426-.606-.167-.876.24-.25.554-.258.917.016.93.702 1.848 1.415 2.772 2.123.155.12.314.234.497.37.154-.105.303-.197.44-.301.861-.66 1.72-1.321 2.58-1.983.722-.555.79-.557 1.496-.018.814.624 1.626 1.25 2.44 1.875.185.143.373.281.59.443l1.755-1.339c.501-.383.995-.776 1.504-1.15.42-.31.599-.312 1.02.008 1.164.883 2.318 1.775 3.476 2.664.062.048.128.095.18.152.222.239.228.562.022.77-.188.189-.502.221-.78.06-.154-.088-.29-.205-.431-.313l-2.63-2.015c-.108-.082-.226-.152-.37-.249-.372.282-.732.552-1.09.825-.689.527-1.375 1.058-2.066 1.584-.486.37-.687.377-1.17.012-.849-.643-1.69-1.297-2.534-1.945-.202-.155-.406-.306-.655-.494M73.569 21.643l2.91-2.234c.126-.096.246-.2.377-.288.35-.234.61-.246.94.003 1.196.91 2.383 1.83 3.573 2.746a.98.98 0 0 1 .174.158.562.562 0 0 1-.026.734.576.576 0 0 1-.72.084c-.24-.141-.455-.318-.674-.486-.924-.708-1.845-1.419-2.792-2.147-.42.319-.812.614-1.201.913-.596.457-1.19.917-1.785 1.375-.758.584-.813.584-1.593-.015l-2.349-1.81c-.187-.144-.377-.285-.603-.455-.212.156-.418.302-.617.456-.832.638-1.659 1.28-2.492 1.916-.6.457-.729.459-1.309.015-1.1-.84-2.194-1.686-3.29-2.53-.079-.06-.161-.119-.229-.188-.247-.257-.26-.534-.045-.765.18-.192.506-.24.778-.088.173.097.326.226.482.346l2.632 2.026c.092.07.192.132.328.224.209-.155.414-.303.614-.457.83-.64 1.656-1.283 2.489-1.919.561-.428.747-.425 1.32.013.864.66 1.722 1.327 2.584 1.99.156.119.317.232.524.383m73.58 54.296h2.577c.15 0 .305-.006.448.021.302.058.483.214.492.463.01.25-.16.415-.46.48-.162.035-.34.034-.511.034-1.697.002-3.394.002-5.09 0-.17 0-.348-.006-.51-.042-.274-.062-.423-.216-.428-.445-.005-.252.158-.417.458-.482.16-.035.34-.028.51-.028.838-.002 1.676-.001 2.514-.001m-13.95 7h2.511c.172.001.348-.004.513.025.253.045.4.187.435.389.037.219-.041.413-.317.496a2.24 2.24 0 0 1-.624.085 672.82 672.82 0 0 1-5.09 0 2.22 2.22 0 0 1-.624-.084c-.27-.082-.362-.274-.33-.493.03-.206.187-.34.437-.388.164-.031.34-.028.511-.029.86-.002 1.718-.001 2.577-.001m26.95.998h-2.385c-.15 0-.302.006-.45-.008-.44-.042-.65-.212-.646-.507.004-.295.22-.457.67-.476.343-.014.687-.004 1.031-.005h4.124l.323.001c.573.012.86.18.852.5-.008.314-.299.487-.877.492-.88.008-1.762.002-2.642.003m14.01 13.005h2.589c.15 0 .305-.007.451.016.288.044.444.195.466.43.024.258-.118.448-.42.512a2.51 2.51 0 0 1-.512.037c-1.704.002-3.408.001-5.113 0-.108 0-.216.004-.323-.005-.443-.04-.648-.216-.628-.53.018-.283.226-.441.642-.456.388-.014.777-.004 1.165-.004h1.683m-54.947 0h2.52c.15 0 .304-.007.451.014.305.044.482.225.485.474.002.234-.131.403-.413.466-.163.037-.34.04-.51.04-1.724.003-3.448.003-5.171.002-.129 0-.26.002-.386-.018-.348-.053-.532-.24-.52-.506.012-.262.214-.444.571-.464.365-.02.732-.008 1.098-.008h1.875m68.996 13.999c.883 0 1.766-.004 2.649.004.189.001.426 0 .553.086a.665.665 0 0 1 .255.44c.027.205-.131.374-.387.428-.184.038-.383.037-.576.038-1.68.002-3.359.002-5.039 0-.15 0-.303.006-.45-.013-.332-.043-.55-.25-.545-.499.004-.247.228-.454.57-.473.385-.022.774-.01 1.162-.011h1.808m-82.07.997c-.86 0-1.72.002-2.581-.002-.171 0-.352 0-.51-.043-.275-.076-.393-.26-.378-.493.015-.236.157-.4.454-.44.168-.023.342-.02.514-.02 1.679-.002 3.357-.001 5.035 0 .15 0 .303-.006.452.01.342.038.547.229.544.49-.003.238-.188.428-.497.477-.167.026-.343.02-.515.02-.839.002-1.678.001-2.517.001"/><path fill="#FFF" d="M115.21 42.949h1.67c.13 0 .263-.01.387.016.215.045.36.17.392.378.033.219-.032.411-.263.508a1.149 1.149 0 0 1-.427.082c-1.205.006-2.41.008-3.616 0-.433-.002-.693-.208-.686-.508.006-.266.277-.509.708-.485.61.034 1.224.009 1.836.009M22.618 91.016c-.755-.101-.952-.226-.951-.58 0-.349.196-.473.945-.583.06-.366-.04-.865.546-.912.353-.028.47.172.57.924.367.093.914-.048.938.586.014.357-.172.46-.954.562-.012.146-.017.3-.037.453-.039.3-.205.46-.477.472a.5.5 0 0 1-.536-.416c-.034-.154-.029-.317-.044-.506M18.193 60.94c.601 0 1.203-.005 1.804.002.447.005.659.158.67.463.01.328-.216.518-.678.525-.77.011-1.542.004-2.312.004-.47 0-.94.015-1.41-.01-.173-.008-.405-.067-.494-.18-.102-.129-.126-.353-.091-.52.042-.203.253-.281.48-.281h2.03v-.003zm23.524-47.934c-.076.718-.205.927-.544.932-.339.006-.478-.21-.59-.932-.163-.024-.338-.036-.506-.076-.284-.068-.434-.268-.407-.532.027-.257.171-.418.434-.456.156-.023.313-.034.498-.054.014-.15.02-.286.04-.42.05-.334.273-.543.554-.529.27.013.444.204.477.534.01.104.002.21.002.37.133.028.259.063.387.08.416.055.608.217.605.522-.004.298-.198.462-.617.518l-.333.043m45.926 49.982c-.762-.078-.978-.205-.976-.546.002-.348.214-.48.962-.576.016-.158.024-.329.054-.496.048-.278.25-.44.512-.431.234.008.43.169.475.418.028.153.025.312.04.511.175.02.345.03.51.063.313.064.468.27.444.56-.022.271-.178.42-.488.454-.138.015-.278.016-.461.025-.013.182-.014.354-.038.523-.042.28-.235.445-.502.446-.265 0-.452-.163-.496-.452-.023-.154-.023-.312-.036-.5m73.632 18.488c.31.02.538.023.763.052.397.05.609.28.627.655.02.399-.205.713-.62.732-.79.037-1.584.02-2.376.023-.146 0-.294.003-.437-.024-.373-.072-.58-.346-.565-.724.014-.354.208-.585.56-.65.123-.023.25-.015.375-.026.122-.01.243-.027.454-.051 0-.275-.01-.53.003-.782.026-.49.239-.742.604-.741.366 0 .576.247.609.741.015.236.003.474.003.795m-26.943-.007c.26.021.508.029.752.065.39.058.583.3.583.696-.001.392-.196.673-.592.687-.94.031-1.882.03-2.822 0-.375-.012-.588-.32-.586-.698.002-.382.21-.632.597-.686.245-.035.493-.04.804-.062 0-.325-.02-.611.005-.892.04-.433.271-.653.628-.639.314.012.527.237.578.63.019.141.004.288.011.432.008.14.025.28.042.467m11.683-6.99c.014-.322.012-.603.04-.88.047-.438.262-.66.608-.66.348 0 .554.217.613.658.018.14.006.286.015.428.009.138.026.275.044.456.25.014.474.017.697.04.387.037.605.264.632.639.029.399-.192.738-.597.753a37.73 37.73 0 0 1-2.808 0c-.408-.014-.617-.343-.59-.756.025-.377.238-.598.631-.637.224-.023.448-.026.715-.04m42.267 34.02c.32.017.567.017.81.047.39.049.576.283.575.693-.002.405-.193.672-.58.682-.94.024-1.881.023-2.82 0-.353-.008-.598-.332-.6-.689-.003-.362.232-.647.6-.685.245-.026.494-.005.823-.005 0-.354-.016-.636.004-.914.031-.437.26-.692.584-.69.329.003.57.26.6.68.02.277.004.559.004.881m-82.034.04c.297 0 .52-.014.743.003.406.03.669.304.676.679.007.405-.269.7-.711.707a73.12 73.12 0 0 1-2.623-.002c-.432-.01-.653-.259-.666-.67-.013-.432.227-.686.69-.716.205-.013.41-.002.705-.002 0-.338-.014-.617.004-.893.027-.422.26-.693.575-.706.316-.013.569.25.603.669.023.279.004.562.004.93m67.812-12.973c0-.392-.017-.654.003-.913.033-.423.272-.7.583-.713.34-.014.597.274.626.732.016.26.003.521.003.855.293.014.538.015.78.041.41.046.634.325.61.734-.023.38-.239.62-.631.627-.915.014-1.83.015-2.745-.002-.38-.007-.603-.266-.621-.643-.02-.4.213-.675.63-.714.224-.022.45-.004.762-.004m-54.999-.061c0-.324-.012-.586.003-.846.025-.421.259-.705.57-.719.315-.014.578.25.635.656.02.14.007.287.013.43.006.141.018.283.032.503.254.012.496.013.736.04.404.045.638.333.615.734-.02.372-.245.619-.636.625-.915.015-1.83.016-2.745 0-.386-.008-.6-.26-.616-.643-.017-.41.205-.67.624-.718.124-.014.25-.002.374-.01.102-.007.202-.026.395-.052m57.257-18.565c-.152-.007-.179-.002-.2-.01-.149-.066-.413-.116-.426-.204-.097-.64-1.039-.602-1.025-1.307.005-.288.117-.52.394-.612.244-.082.394-.208.472-.462.085-.28.318-.396.606-.405.323-.01.58.132.658.433.065.25.202.336.418.413.293.104.462.333.451.654-.01.316-.18.559-.482.63-.256.061-.297.236-.404.421-.118.204-.348.343-.462.449M8.667 123.4c.206-.244.329-.496.52-.588.223-.106.37-.194.43-.459.066-.286.312-.452.564-.409.217.038.517.185.59.367.117.296.299.4.54.538.488.278.469.912-.027 1.19-.226.126-.412.214-.487.511-.069.272-.32.394-.59.387-.265-.006-.519-.111-.58-.398-.066-.308-.276-.373-.49-.508-.183-.115-.285-.371-.47-.63m86.999-18.92c-.002.023.004.05-.006.07-.06.125-.109.346-.188.357-.63.094-.586.98-1.24 1.027-.318.022-.586-.085-.681-.388-.08-.25-.185-.397-.446-.47-.31-.086-.445-.336-.438-.651.007-.318.163-.56.474-.625.255-.054.332-.191.396-.417.086-.307.332-.445.648-.446a.604.604 0 0 1 .6.415c.088.235.19.38.458.464.32.102.436.365.423.664m108.626-6.543c.094.068.347.163.436.34.134.267.283.429.56.568.51.257.503.933-.007 1.188-.244.123-.429.21-.515.499-.08.262-.309.408-.602.404-.316-.004-.561-.146-.64-.453-.06-.237-.156-.354-.4-.41-.31-.073-.456-.319-.457-.635-.002-.316.139-.556.448-.645.224-.064.333-.17.413-.407.12-.355.324-.456.764-.45m-178.63 8.521c0 .308.012.617-.003.925-.018.37-.197.559-.493.554-.294-.004-.48-.196-.488-.564a40.108 40.108 0 0 1-.001-1.85c.009-.39.214-.6.524-.585.284.015.446.214.46.595.011.308.002.617.002.925zm203-72.006c0 .313.012.626-.003.937-.017.327-.203.532-.459.548-.264.016-.51-.213-.52-.543a32.98 32.98 0 0 1 .001-1.93c.011-.362.21-.536.516-.526.303.01.443.183.466.577v.937h-.001zm-112.51 11.48c-.312 0-.625.015-.937-.004-.364-.022-.566-.228-.547-.52.017-.272.21-.454.55-.46a41.635 41.635 0 0 1 1.93.002c.332.008.517.208.519.488.002.277-.18.466-.522.488-.33.02-.661.004-.992.004v.002zm-41.49 60.49c0 .31.01.62-.002.93-.014.38-.182.574-.48.585-.302.011-.494-.179-.503-.555a39.389 39.389 0 0 1 .002-1.914c.01-.35.188-.526.471-.53.303-.005.492.19.51.554.014.31.002.62.003.93m82.032-77.485a1.013 1.013 0 0 1-1.027-.958c-.03-.53.403-1.011.938-1.04.568-.03 1.055.42 1.06.983a1.016 1.016 0 0 1-.971 1.015m-36.007 9.008c.165 0 .332-.013.495.003.285.028.434.188.476.422.044.245-.096.497-.383.53-.402.048-.822.05-1.224.005-.293-.033-.412-.262-.38-.53.03-.26.196-.399.52-.434.041-.004.083-.003.124-.003h.372v.007zm127.098-10.002c.552.052.934.535.875 1.107a.979.979 0 0 1-1.103.88 1.011 1.011 0 0 1-.884-1.112c.067-.558.539-.93 1.112-.875M24.676 56.939c-.148-.008-.3-.002-.442-.025-.337-.053-.581-.254-.567-.476.015-.22.15-.416.484-.46a3.98 3.98 0 0 1 .944-.02c.386.045.6.28.568.52-.032.245-.29.415-.691.45-.097.008-.197 0-.296 0v.01m-6.999 7.007c.123 0 .247-.01.367.002.355.035.587.204.62.438.033.247-.19.48-.562.527-.26.032-.54.035-.802.01-.385-.037-.634-.251-.633-.494 0-.259.29-.458.716-.486.097-.007.196-.001.294-.001v.004m187.467-31.006c.29-.009.506.183.522.465a.497.497 0 0 1-.5.535.483.483 0 0 1-.5-.491.478.478 0 0 1 .478-.51m-113.979 99a.484.484 0 0 1-.498-.474.49.49 0 0 1 .498-.525c.276-.002.49.2.501.471a.502.502 0 0 1-.5.528m89.5-130.47a.495.495 0 0 1-.552.468.494.494 0 0 1-.446-.524.507.507 0 0 1 .505-.473.5.5 0 0 1 .493.53m72 115.969c.002.31-.204.508-.518.5-.29-.007-.48-.2-.481-.488a.492.492 0 0 1 .47-.51c.301-.015.528.2.53.498M76.7 137.486c-.207-.162-.294-.27-.401-.304-.126-.04-.27-.017-.407-.017-1.19 0-2.381-.002-3.572.001-.224 0-.486-.054-.542.32H76.7zm-3.688 1.27v3.875h2.318c.004-1.309.012-2.587-.004-3.875h-2.314zm3.507-.011v.77c0 1.172.005 2.344-.002 3.516-.005.68-.192.888-.836.897a106.93 106.93 0 0 1-3.05-.001c-.614-.01-.8-.218-.806-.866-.01-1.151-.003-2.303-.003-3.454v-.814c-.342-.017-.644-.035-.947-.046-.214-.009-.433.015-.644-.018-.508-.077-.742-.595-.413-1 .469-.576.99-1.107 1.513-1.632.11-.11.323-.148.488-.15 1.564-.01 3.128-.003 4.692-.008a.858.858 0 0 1 .679.297c.403.447.811.89 1.218 1.334.2.22.33.464.213.777-.131.348-.415.399-.723.398h-1.38zm-48.96-1.252c-.032-.268-.181-.325-.374-.325h-4.04c-.191 0-.352.043-.355.325h4.77zm-3.529 5.117c.78.13 1.894.1 2.29-.053.09-.985.057-3.345-.058-3.8H24.03v3.853zm3.495-3.865v3.327c0 .35.006.7-.003 1.049-.015.572-.196.765-.743.811-.078.007-.157.005-.235.005-.921 0-1.842.004-2.762-.002-.797-.005-.973-.188-.976-1.01-.003-1.13 0-2.262 0-3.393v-.71c-.19-.028-.338-.064-.486-.07-.254-.012-.51-.006-.764-.004-.34.002-.689.006-.844-.398-.141-.367.067-.63.289-.873.38-.415.765-.825 1.144-1.241a.861.861 0 0 1 .68-.297c1.566.006 3.134-.006 4.7.012a.907.907 0 0 1 .576.231c.473.461.911.962 1.363 1.447a.673.673 0 0 1 .15.738c-.107.283-.345.376-.618.377-.465.003-.93 0-1.471 0zm32.14 3.724c0 1.472.003 2.943-.003 4.415 0 .224-.013.458-.062.671-.061.265-.234.39-.446.383-.213-.007-.368-.15-.431-.414a2.154 2.154 0 0 1-.055-.49c-.003-3.066-.003-6.134 0-9.201 0-.163.017-.334.056-.488.073-.294.252-.422.483-.405.213.016.368.164.415.437.034.2.041.41.042.615.003 1.493.001 2.985.001 4.477m-6.999-.07v-4.473c0-.166-.006-.334.013-.496.033-.28.18-.438.395-.48.238-.048.433.058.521.345.052.168.067.362.067.544.004 3.065.003 6.13.003 9.195 0 .083.004.167-.005.248-.04.414-.265.681-.545.655-.264-.025-.443-.277-.444-.693-.007-1.615-.003-3.23-.003-4.845h-.002zm-20 .01v-4.413c0-.186-.006-.376.02-.557.044-.298.2-.468.437-.497.243-.03.444.144.51.459.031.157.031.328.031.493.002 3.025.002 6.05 0 9.075 0 .165.005.337-.029.493-.061.284-.215.46-.455.476-.234.015-.439-.182-.49-.496-.029-.18-.023-.37-.023-.557-.002-1.492 0-2.984-.001-4.475m34 .025l-.001 4.476c0 .165.003.333-.015.496-.035.303-.185.477-.418.524-.227.046-.448-.132-.52-.442a2.508 2.508 0 0 1-.044-.552 4513.01 4513.01 0 0 1 0-9.013c0-.203.02-.415.067-.608.075-.298.268-.402.5-.373.217.028.364.189.407.46.028.18.022.371.023.557v4.475m-28 .03c0-1.492 0-2.984.002-4.476 0-.186-.005-.375.019-.557.039-.306.203-.472.436-.492.233-.019.416.113.484.412.04.176.057.366.057.55.003 3.025.003 6.05 0 9.075 0 .183-.01.377-.056.548-.075.283-.25.437-.488.41-.235-.025-.392-.2-.433-.5-.025-.181-.02-.371-.02-.557v-4.413m6.998-.014v4.347c0 .145.003.29-.002.434-.016.438-.161.67-.434.703-.288.035-.508-.216-.554-.641-.011-.102-.008-.207-.008-.31 0-3.022-.001-6.044.001-9.066 0-.184.009-.375.046-.552.063-.3.247-.432.488-.427.246.004.425.22.456.545.014.143.007.29.007.435v4.532"/><mask id="e" fill="#fff"><use xlink:href="#d"/></mask><path fill="#FFF" d="M24.062 149.702h1.16v-1.499h-1.16v1.499zm-1.391-.792c0-.385-.01-.77.002-1.155.02-.59.245-.794.914-.806a52.523 52.523 0 0 1 2.167.001c.624.015.878.224.894.772.025.81.025 1.623 0 2.433-.017.564-.249.755-.89.77-.744.018-1.49.019-2.233 0-.617-.016-.835-.232-.852-.798-.012-.405-.003-.811-.002-1.217zm50.422.771h1.177c.036-.518.108-.992-.042-1.471h-1.135v1.471zm2.57-.722c0 .386.007.77-.002 1.156-.014.568-.23.792-.842.808-.77.02-1.543.02-2.313 0-.597-.017-.816-.22-.826-.756a59.198 59.198 0 0 1 0-2.493c.012-.482.255-.703.803-.719a42.298 42.298 0 0 1 2.381 0c.54.016.774.245.794.728.017.425.004.85.004 1.276zm-1.298-15.031a.718.718 0 0 0-.668-.687c-.363-.012-.714.356-.692.726.02.345.363.666.7.655.342-.01.664-.349.66-.694m1.302.009c-.001 1.133-.88 2.012-2.003 2.001-1.066-.01-1.975-.91-1.997-1.975-.022-1.085.897-2.014 2.004-2.024 1.133-.011 1.997.854 1.996 1.998m-50.999.682c.35-.008.659-.326.663-.682.004-.352-.306-.682-.65-.693-.378-.011-.709.33-.694.715.015.361.332.669.681.66m.013-2.68a2.007 2.007 0 0 1 1.985 2.035 2.027 2.027 0 0 1-1.998 1.965 1.98 1.98 0 0 1-2.001-2.011 1.968 1.968 0 0 1 2.014-1.99m-.012 12.998c-.713 0-1.426.002-2.14-.001-.153 0-.316.008-.457-.032-.259-.074-.418-.239-.405-.484.014-.241.172-.403.445-.457.147-.03.306-.022.46-.022h4.163c.077 0 .155-.003.232 0 .43.02.715.233.7.518-.016.279-.27.463-.685.475-.404.01-.81.003-1.214.003h-1.099m48.965.001h-2.028c-.135 0-.272.007-.405-.008-.324-.039-.537-.243-.534-.496.003-.248.225-.45.55-.486.114-.013.231-.007.347-.007h4.23c.116 0 .234-.006.348.008.337.042.527.226.525.497-.002.265-.196.444-.541.483-.133.016-.27.009-.405.009h-2.087m-40.975-7.999h-1.11c-.118 0-.236.005-.35-.01-.347-.044-.534-.224-.532-.497.002-.267.198-.474.545-.48a79.83 79.83 0 0 1 2.922.002c.341.006.538.224.533.49-.006.27-.195.465-.548.482-.485.023-.973.006-1.46.006v.007m32.976-.003c-.426 0-.853.01-1.279-.003-.449-.013-.706-.218-.688-.521.016-.277.27-.463.69-.468.873-.01 1.744 0 2.616-.004.25-.001.465.053.601.239.237.323-.009.72-.488.747-.482.026-.968.005-1.452.005v.005m-5.983-.002c-.467 0-.934.016-1.4-.006-.405-.019-.625-.25-.58-.551.036-.237.237-.42.553-.426a92.085 92.085 0 0 1 2.858-.001c.376.006.59.22.583.502-.007.278-.222.463-.614.478-.466.017-.933.004-1.4.004m-5.973.002c-.448 0-.896.01-1.343-.003-.443-.013-.662-.18-.67-.48-.007-.317.228-.502.694-.507.857-.009 1.714-.008 2.57 0 .48.004.728.176.736.478.01.321-.251.499-.76.512-.214.006-.429.002-.643.002h-.584v-.002zm-14.037-.993c.448 0 .896-.009 1.344.002.418.01.671.2.68.48.01.285-.234.498-.648.504-.915.014-1.83.014-2.745 0-.405-.007-.598-.183-.606-.476-.009-.312.2-.492.632-.506.447-.015.896-.003 1.343-.003v-.001zm6 .996h-1.168c-.116-.001-.235.001-.348-.02-.295-.057-.468-.253-.459-.502.01-.261.212-.459.565-.465a85.7 85.7 0 0 1 2.859-.001c.369.006.586.227.575.51-.01.259-.214.452-.566.467-.485.022-.972.006-1.459.006v.005zm174.027-11.514V101.08c0-.202-.01-.407.01-.608.03-.33.2-.519.455-.534.257-.014.449.151.504.47.03.176.028.363.028.545v48.989c0 .181 0 .368-.034.543-.059.307-.273.486-.518.447-.237-.038-.405-.191-.433-.498-.018-.2-.012-.405-.012-.608v-24.403m-3-.02V101c0-.162-.008-.325.005-.486.026-.347.172-.538.42-.57.267-.035.474.143.545.481.02.097.02.2.024.302.003.141 0 .284 0 .426v48.567c0 .203.011.408-.008.608-.037.39-.237.616-.512.611-.273-.004-.452-.244-.472-.64-.007-.142-.002-.285-.002-.427v-24.466m19 .028v-24.346c0-.203-.01-.408.009-.608.03-.329.203-.522.45-.54.272-.018.473.17.523.516.022.158.014.324.014.486v48.997c0 .162.008.328-.015.486-.051.342-.262.537-.526.512-.242-.022-.417-.226-.447-.548-.017-.18-.007-.365-.007-.547v-24.408m3.995-.009v24.34c0 .223.01.45-.017.668-.04.317-.24.507-.487.507-.24-.001-.437-.202-.479-.515-.02-.158-.014-.323-.014-.485v-49.045c0-.162-.004-.328.02-.485.046-.288.223-.459.456-.47.256-.012.457.16.499.478.031.238.021.485.021.728l.001 24.28M146.72 85.94c.418 0 .836-.007 1.254.002.44.01.667.168.69.454.026.3-.226.521-.675.53a74.55 74.55 0 0 1-2.633 0c-.464-.008-.704-.212-.689-.517.016-.306.25-.46.736-.467.439-.007.878-.002 1.317-.002m-.085 35.993c-.418 0-.837.01-1.255-.002-.472-.015-.713-.19-.713-.49-.001-.298.245-.488.708-.494a93.069 93.069 0 0 1 2.574 0c.457.005.715.198.718.49.002.293-.25.479-.714.494-.439.013-.879.003-1.318.002m28.057-14.99c.438 0 .876-.013 1.313.004.43.016.66.198.662.479.002.275-.225.483-.65.493a57.31 57.31 0 0 1-2.687.005c-.43-.01-.659-.21-.663-.487-.005-.293.246-.478.712-.493.437-.013.876-.002 1.313-.002v.001zm-55.018 0c.438-.001.877-.013 1.314.002.43.016.665.192.678.472.013.266-.23.494-.642.504-.916.021-1.835.023-2.75-.002-.429-.012-.63-.227-.605-.52.023-.271.227-.436.63-.452.457-.018.917-.004 1.375-.005m40.952-13.006c-.396 0-.792.005-1.188-.003a1.45 1.45 0 0 1-.426-.06c-.262-.089-.367-.271-.342-.5.026-.237.222-.42.53-.424a98.477 98.477 0 0 1 2.876-.002c.363.005.592.22.59.49 0 .245-.204.46-.541.48-.498.027-1 .007-1.5.007v.012m-26.982-.004c-.422 0-.845.017-1.265-.007-.197-.012-.456-.057-.564-.167a.616.616 0 0 1-.137-.514c.039-.196.262-.301.524-.302.95-.001 1.9-.01 2.848.001.4.005.607.182.617.464.01.287-.185.492-.567.512-.484.025-.97.006-1.456.006v.007m-27.956 26.009c.417 0 .834-.01 1.25.002.463.013.727.198.73.484.002.283-.265.493-.717.502-.854.015-1.71.007-2.564.001-.12 0-.25-.025-.361-.064-.273-.094-.404-.301-.344-.53.064-.244.264-.38.569-.387.479-.011.958-.003 1.437-.003v-.005zm82.001.994c-.376 0-.752.005-1.128-.003a2.303 2.303 0 0 1-.49-.055c-.273-.067-.397-.24-.403-.458-.006-.218.201-.406.488-.46.08-.016.166-.018.249-.018.856 0 1.713-.01 2.57.004.49.007.735.22.687.548-.038.26-.25.418-.657.435-.437.019-.877.004-1.316.004v.003zm-140.49-3.992c.269 0 .54-.014.807.003.396.023.649.21.661.46.012.241-.24.494-.6.51-.604.028-1.213.03-1.815 0-.382-.018-.602-.25-.583-.51.02-.26.26-.431.655-.463.044-.004.09-.003.134-.003h.74v.003zm-4.085.988c-.27 0-.542.018-.808-.005-.425-.035-.663-.247-.636-.527.025-.258.266-.439.668-.45.56-.015 1.123-.017 1.683.003.396.013.635.21.646.469.01.244-.235.467-.612.5-.31.027-.627.006-.941.006v.004" mask="url(#e)"/><path fill="#FFF" d="M40.113 117.932c-.27 0-.541.018-.807-.004-.422-.036-.666-.252-.637-.528.027-.258.27-.44.668-.45.56-.014 1.123-.017 1.682.003.399.014.636.209.647.468.011.244-.234.467-.612.5-.31.028-.627.006-.941.006v.005m15 0c-.27 0-.542.018-.807-.005-.415-.036-.666-.261-.637-.532.027-.258.267-.434.676-.445.56-.015 1.123-.016 1.683.002.377.011.631.222.638.474.008.256-.224.465-.611.498-.31.025-.628.005-.942.005v.002m4.08-.987c.27 0 .54-.012.808.002.385.02.642.207.664.46.022.254-.205.492-.586.51-.602.03-1.212.03-1.814.001-.38-.018-.613-.252-.598-.505.016-.26.256-.443.652-.465.29-.017.583-.003.874-.003m-8.043.988c-.27 0-.54.016-.807-.003-.425-.031-.683-.237-.676-.508.006-.273.267-.461.709-.472a31 31 0 0 1 1.614 0c.387.011.646.201.674.45.03.27-.222.494-.64.528-.289.023-.583.004-.874.004v.001" mask="url(#e)"/></g></g></svg>